<?xml version="1.0" encoding="UTF-8"?>
<svg id="Camada_1" data-name="Camada 1" xmlns="http://www.w3.org/2000/svg" xmlns:xlink="http://www.w3.org/1999/xlink" viewBox="0 0 1440 1024">
  <defs>
    <style>
      .cls-1 {
        stroke-width: 10px;
      }

      .cls-1, .cls-2, .cls-3, .cls-4, .cls-5, .cls-6, .cls-7, .cls-8, .cls-9, .cls-10, .cls-11 {
        fill: none;
      }

      .cls-1, .cls-2, .cls-3, .cls-4, .cls-5, .cls-6, .cls-8, .cls-9, .cls-10, .cls-11 {
        stroke: #583990;
        stroke-linecap: round;
        stroke-linejoin: round;
      }

      .cls-2 {
        stroke-dasharray: 0 0 0 0 0 0 11.7 11.7;
      }

      .cls-2, .cls-5, .cls-6, .cls-11 {
        stroke-width: 4px;
      }

      .cls-3 {
        stroke-width: 5px;
      }

      .cls-4 {
        stroke-dasharray: 0 0 0 0 0 0 12 12;
      }

      .cls-4, .cls-8, .cls-9, .cls-10 {
        stroke-width: 2px;
      }

      .cls-5 {
        stroke-dasharray: 0 0 0 0 0 0 12.19 12.19;
      }

      .cls-12 {
        clip-path: url(#clippath);
      }

      .cls-13 {
        fill: #251542;
      }

      .cls-8 {
        stroke-dasharray: 0 0 0 0 0 0 12.05 12.05;
      }

      .cls-10 {
        stroke-dasharray: 0 0 0 0 0 0 11.5 11.5;
      }

      .cls-11 {
        stroke-dasharray: 0 0 0 0 0 0 11.4 11.4;
      }
    </style>
    <clipPath id="clippath">
      <rect class="cls-7" y="144.9" width="1440" height="879.1"/>
    </clipPath>
  </defs>
  <rect class="cls-13" y="0" width="1440" height="1024"/>
  <g class="cls-12">
    <g>
      <path class="cls-9" d="M1236.98,443.68l-1.89,1.09"/>
      <path class="cls-4" d="M1231.29,446.96l-81.57,47.1"/>
      <path class="cls-9" d="M1147.82,495.16l-1.89,1.09v2.19"/>
      <path class="cls-4" d="M1145.93,502.83v94.19"/>
      <path class="cls-9" d="M1145.93,599.21v2.19"/>
      <path class="cls-6" d="M1479.56,171.41l-183.88,108.25v87.94l76.17,43.97,149.67-87.51"/>
      <path class="cls-6" d="M1358.48,316.2v-77.15l-66.81-38.57-66.81,38.58v77.15"/>
      <path class="cls-6" d="M1046.18,505.88v-87.27l-75.59-43.63"/>
      <path class="cls-6" d="M901.44,284.73v2.19l1.9,1.1"/>
      <path class="cls-2" d="M907.03,290.15l86.92,50.18"/>
      <path class="cls-6" d="M995.8,341.39l1.89,1.1,1.9-1.1"/>
      <path class="cls-2" d="M1003.29,339.26l86.91-50.18"/>
      <path class="cls-6" d="M1092.05,288.01l1.9-1.1v-2.19"/>
      <path class="cls-2" d="M1093.95,280.45v-100.36"/>
      <path class="cls-2" d="M901.43,182.24v100.36"/>
      <path class="cls-9" d="M1016.78,365.72v-84.15l-72.88-42.07"/>
      <path class="cls-9" d="M1404.65,591.11l-134.69-77.87"/>
      <path class="cls-6" d="M1007.91,144.91v80.58l69.79,40.28,69.78-40.29v-80.58"/>
      <path class="cls-6" d="M1047.32,333.39l57.11,32.97,57.11-32.98v-65.95l-57.11-32.97-57.12,32.97v65.95h.01Z"/>
      <path class="cls-9" d="M1083.33,434.97l101.59,58.64,101.58-58.65v-117.3l-101.6-58.64-101.58,58.65v117.3h.01Z"/>
      <path class="cls-9" d="M73.87,489.25l1.9-1.1"/>
      <path class="cls-4" d="M79.56,485.96l81.57-47.1"/>
      <path class="cls-9" d="M163.03,437.76l1.89-1.09v-2.19"/>
      <path class="cls-4" d="M164.93,430.1v-94.19"/>
      <path class="cls-9" d="M164.92,333.71v-2.19"/>
      <path class="cls-6" d="M165.68,331.53l64.6-37.3"/>
      <path class="cls-6" d="M-5.35,706.61l76.15-43.98v-87.94L-5.37,530.73l-76.15,43.97"/>
      <path class="cls-6" d="M7.24,699.82l66.81,38.57,66.81-38.58v-77.15"/>
      <path class="cls-6" d="M271.77,763.11l96.26,55.57,96.25-55.58v-111.15l-96.26-55.57"/>
      <path class="cls-9" d="M348.93,498.92v2.19"/>
      <path class="cls-8" d="M348.93,505.51v147.4"/>
      <path class="cls-9" d="M348.94,655.11v2.19l1.89,1.1"/>
      <path class="cls-10" d="M354.47,660.5l63.63,36.73"/>
      <path class="cls-9" d="M419.92,698.28l1.9,1.09"/>
      <path class="cls-9" d="M976.86,1054.66l-134.69-77.87"/>
      <path class="cls-6" d="M74.05,762.27l-1.9,1.09"/>
      <path class="cls-11" d="M68.55,765.44l-63.05,36.4"/>
      <path class="cls-11" d="M7.31,890.58l63.05,36.4"/>
      <path class="cls-6" d="M72.17,928.02l1.9,1.1,1.89-1.1"/>
      <path class="cls-11" d="M79.56,925.94l63.05-36.4"/>
      <path class="cls-6" d="M144.41,888.5l1.9-1.1"/>
      <path class="cls-6" d="M90.19,867.03l-43.23-24.96-43.23,24.96v49.92l43.24,24.96,43.23-24.97v-49.92h-.01Z"/>
      <path class="cls-6" d="M107.99,949.15l-60.87-35.14-60.86,35.14v70.28l60.87,35.14,60.86-35.14v-70.28Z"/>
      <path class="cls-6" d="M154.41,1071.03l75.11-43.37v-86.74l-75.13-43.37-75.11,43.37"/>
      <path class="cls-6" d="M387.56,757.36l-152.96-88.3-152.95,88.31v176.62l152.97,88.3,152.95-88.31v-176.62h-.01Z"/>
      <path class="cls-6" d="M357.8,793.96v-80.58l-69.79-40.28-69.78,40.29v80.58"/>
      <path class="cls-1" d="M412.17,918.73l-135.6,78.29v156.57"/>
      <path class="cls-6" d="M261.29,704.41l57.12-32.98v-65.95"/>
      <path class="cls-3" d="M520.37,804.02l-152.34-87.95-152.33,87.96v175.9l152.35,87.95,152.33-87.96v-175.9h-.01Z"/>
      <path class="cls-9" d="M451.65,731.76l101.59,58.64"/>
      <path class="cls-9" d="M711.58,814.56l-101.59-58.64"/>
      <path class="cls-9" d="M180.8,445.26l-101.58,58.66v117.3l101.59,58.64,101.58-58.65"/>
      <path class="cls-6" d="M475.47,709.9l-77.74,44.89v89.77l77.75,44.88,77.74-44.89"/>
      <path class="cls-6" d="M223.7,924.77v74.26l64.31,37.13,64.31-37.13v-74.26"/>
      <path class="cls-6" d="M523.91,917.9v-2.19l-1.9-1.09"/>
      <path class="cls-5" d="M518.15,912.39l-183.09-105.7"/>
      <path class="cls-6" d="M333.14,805.58l-1.9-1.1-1.89,1.1"/>
      <path class="cls-5" d="M325.49,807.8l-183.08,105.71"/>
      <path class="cls-6" d="M140.48,914.63l-1.89,1.09v2.19"/>
      <path class="cls-5" d="M138.59,922.36v211.41"/>
      <path class="cls-5" d="M523.91,1131.53v-211.41"/>
      <path class="cls-6" d="M585.8,1003.54l-120.72-69.69-120.71,69.7v139.39l120.72,69.69,120.71-69.71v-139.38h0Z"/>
      <path class="cls-6" d="M609.03,835.59l-89.12,51.46v102.91l89.13,51.45,89.12-51.46"/>
      <path class="cls-6" d="M595.03,884.51v61.96l94.02,54.27,94.01-54.29v-88.18"/>
      <path class="cls-9" d="M1098.09,697.68l157.6-88.74v-33.25"/>
      <path class="cls-6" d="M791.72,956.27l-48.88-28.22-48.88,28.22v56.45l48.89,28.22,48.88-28.23v-56.45h-.01Z"/>
      <path class="cls-6" d="M1264.24,513.23c0-3.16,2.56-5.72,5.72-5.72s5.71,2.56,5.71,5.72-2.56,5.72-5.71,5.72-5.72-2.56-5.72-5.72Z"/>
      <path class="cls-6" d="M1020.08,369.66c1.82-1.82,1.82-4.78-.01-6.6-1.82-1.82-4.77-1.82-6.59,0s-1.82,4.78,0,6.6,4.77,1.82,6.6,0h0Z"/>
      <path class="cls-6" d="M1050.64,507.7c1.02-2.46-.15-5.27-2.6-6.29-2.46-1.02-5.27,.15-6.29,2.6s.15,5.27,2.6,6.29c2.46,1.02,5.27-.15,6.29-2.6Z"/>
      <path class="cls-6" d="M1231.68,320.76c2.5-3.76,1.48-8.82-2.28-11.32s-8.82-1.47-11.32,2.28c-2.49,3.76-1.47,8.82,2.28,11.32,3.76,2.5,8.83,1.47,11.32-2.28Z"/>
      <path class="cls-6" d="M1366.01,319.89c2.42-3.81,1.29-8.85-2.52-11.27-3.81-2.42-8.85-1.29-11.27,2.52-2.41,3.81-1.28,8.85,2.52,11.27,3.81,2.41,8.86,1.29,11.27-2.52Z"/>
      <path class="cls-6" d="M939.99,239.5c0-2.16,1.75-3.91,3.91-3.91s3.91,1.75,3.91,3.91-1.75,3.91-3.91,3.91-3.91-1.75-3.91-3.91Z"/>
      <path class="cls-6" d="M557.65,792.55c1.21-2.44,.21-5.39-2.23-6.59-2.44-1.21-5.39-.21-6.59,2.23-1.21,2.43-.21,5.39,2.23,6.59,2.44,1.21,5.39,.21,6.59-2.23Z"/>
      <path class="cls-6" d="M358.83,799.55c3.1-.56,5.16-3.53,4.6-6.63s-3.53-5.16-6.63-4.6-5.16,3.53-4.6,6.63,3.53,5.16,6.63,4.6Z"/>
      <path class="cls-6" d="M356.19,928.65c2.14-2.14,2.14-5.61,0-7.75s-5.61-2.14-7.75,0-2.14,5.61,0,7.75,5.61,2.14,7.75,0Z"/>
      <path class="cls-6" d="M1103.59,697.68c0,3.04-2.46,5.5-5.49,5.5s-5.5-2.46-5.5-5.5,2.46-5.5,5.5-5.5,5.49,2.46,5.49,5.5Z"/>
      <path class="cls-6" d="M847.81,977.32c.29-3.14-2.01-5.93-5.16-6.23-3.14-.29-5.93,2.02-6.23,5.16-.29,3.14,2.02,5.93,5.16,6.23,3.14,.29,5.93-2.01,6.23-5.16Z"/>
      <path class="cls-6" d="M350.77,503.21c2.37-1.02,3.46-3.76,2.44-6.13s-3.76-3.46-6.13-2.44-3.46,3.76-2.44,6.13,3.76,3.46,6.13,2.44Z"/>
      <path class="cls-6" d="M154.3,888.69c.69-4.42-2.33-8.56-6.75-9.26-4.42-.69-8.56,2.33-9.26,6.75-.69,4.42,2.33,8.56,6.75,9.26,4.42,.69,8.56-2.33,9.26-6.75Z"/>
      <path class="cls-6" d="M148.93,623.89c.67-4.46-2.4-8.62-6.86-9.29s-8.62,2.4-9.29,6.86c-.67,4.46,2.4,8.62,6.86,9.29s8.62-2.4,9.29-6.86Z"/>
      <path class="cls-6" d="M222.4,793.97c0,2.3-1.86,4.16-4.16,4.16s-4.16-1.86-4.16-4.16,1.86-4.16,4.16-4.16,4.16,1.86,4.16,4.16Z"/>
      <path class="cls-6" d="M425.72,699.38c0,2.16-1.75,3.9-3.91,3.9s-3.9-1.75-3.9-3.9,1.75-3.91,3.9-3.91,3.91,1.75,3.91,3.91Z"/>
      <path class="cls-6" d="M599.18,884.51c0,2.29-1.86,4.15-4.15,4.15s-4.15-1.86-4.15-4.15,1.86-4.15,4.15-4.15,4.15,1.86,4.15,4.15Z"/>
      <path class="cls-6" d="M267.16,708.43c2.21-3.24,1.39-7.66-1.85-9.87-3.24-2.21-7.65-1.39-9.87,1.85-2.21,3.24-1.38,7.65,1.85,9.87,3.24,2.21,7.65,1.39,9.87-1.85Z"/>
      <path class="cls-6" d="M613.72,755.92c0,2.06-1.67,3.73-3.73,3.73s-3.73-1.67-3.73-3.73,1.67-3.73,3.73-3.73,3.73,1.67,3.73,3.73Z"/>
      <path class="cls-6" d="M1261.38,578.86c1.74-3.12,.63-7.06-2.49-8.8s-7.06-.62-8.8,2.49c-1.74,3.12-.63,7.06,2.49,8.8s7.06,.62,8.8-2.5h0Z"/>
      <path class="cls-6" d="M555.13,849.1c2.52-1.04,3.71-3.93,2.67-6.44-1.04-2.52-3.93-3.71-6.44-2.67-2.52,1.04-3.71,3.93-2.67,6.44,1.04,2.52,3.93,3.71,6.44,2.67Z"/>
    </g>
  </g>
</svg>