<svg width="250" height="39" viewBox="0 0 250 39" fill="none" xmlns="http://www.w3.org/2000/svg">
<path d="M225.211 19.0611C225.211 13.9255 225.244 8.78983 225.178 3.6542C225.178 2.89702 225.375 2.6995 226.132 2.73242C228.075 2.79826 230.017 2.76534 231.926 2.73242C232.585 2.73242 232.782 2.89702 232.75 3.55544C232.717 7.04503 232.75 10.5676 232.717 14.0571C232.717 14.8472 232.914 15.0777 233.704 15.0448C236.305 15.0118 238.906 15.0118 241.506 15.1106C242.297 15.1435 242.461 14.9131 242.461 14.1559C242.428 10.6663 242.461 7.1438 242.428 3.6542C242.428 2.89702 242.626 2.6995 243.383 2.73242C245.358 2.79826 247.333 2.76534 249.276 2.73242C249.835 2.73242 250 2.89702 250 3.45667C250 13.8596 250 24.2626 250 34.6655C250 35.2252 249.868 35.4227 249.276 35.4227C247.235 35.3898 245.194 35.3898 243.185 35.4227C242.527 35.4227 242.428 35.1593 242.428 34.5997C242.461 30.5504 242.395 26.5341 242.461 22.4849C242.461 21.6289 242.231 21.4314 241.408 21.4643C238.873 21.5301 236.338 21.5301 233.803 21.4643C232.881 21.4314 232.717 21.7606 232.75 22.5836C232.782 26.5012 232.749 30.4517 232.782 34.3692C232.782 35.1264 232.651 35.4227 231.828 35.3898C229.918 35.3239 228.009 35.3239 226.132 35.3898C225.342 35.4227 225.211 35.1264 225.211 34.4351C225.211 29.3324 225.211 24.1967 225.211 19.0611Z" fill="white"/>
<path d="M198.413 2.73242C197.755 4.80643 197.129 6.68291 196.57 8.59231C196.405 9.18488 196.043 9.18488 195.615 9.18488C192.948 9.18488 190.282 9.2178 187.615 9.18488C186.825 9.18488 186.496 9.34948 186.562 10.2054C186.627 11.5552 186.627 12.9378 186.562 14.3205C186.529 14.946 186.759 15.1106 187.352 15.1106C189.887 15.0777 192.422 15.1106 194.956 15.0777C195.648 15.0777 195.878 15.2423 195.845 15.9665C195.779 17.5797 195.779 19.1599 195.812 20.773C195.812 21.3985 195.681 21.6289 194.989 21.6289C192.454 21.596 189.92 21.6289 187.385 21.596C186.726 21.596 186.529 21.7606 186.529 22.419C186.562 24.1638 186.595 25.8757 186.529 27.6205C186.496 28.3447 186.792 28.4764 187.451 28.4764C190.841 28.4435 194.265 28.4764 197.656 28.4435C198.413 28.4435 198.644 28.6081 198.611 29.3982C198.545 31.1759 198.578 32.9207 198.611 34.6984C198.611 35.2581 198.512 35.5215 197.853 35.5215C191.895 35.4556 185.903 35.4227 179.945 35.4227C179.089 35.4227 179.154 34.9947 179.154 34.4351C179.187 26.3366 179.187 18.2381 179.187 10.1396C179.187 7.9339 179.187 5.72821 179.187 3.55544C179.187 3.12747 179.154 2.79826 179.78 2.79826C185.936 2.76534 192.125 2.73242 198.413 2.73242Z" fill="white"/>
<path d="M142.481 2.79806C145.18 2.79806 147.88 2.83098 150.579 2.76514C151.336 2.76514 151.534 2.99558 151.501 3.71984C151.435 5.00375 151.435 6.32058 151.501 7.60448C151.534 8.39458 151.271 8.52626 150.546 8.52626C147.221 8.49334 143.863 8.52626 140.538 8.49334C139.814 8.49334 139.551 8.65795 139.584 9.41512C139.649 10.9295 139.649 12.4109 139.584 13.9253C139.551 14.6824 139.748 14.9787 140.571 14.9458C142.217 14.847 143.83 14.9129 145.476 15.2092C149.756 15.9334 152.39 18.7975 153.081 23.3406C153.377 25.3488 153.279 27.324 152.62 29.2663C150.513 35.3896 142.678 38.0232 137.279 34.4678C134.744 32.7888 133.329 30.4185 133.164 27.2911C133.131 26.3693 133.362 25.9413 134.349 25.9742C135.732 26.0401 137.082 26.0072 138.464 25.9742C139.057 25.9742 139.287 26.2047 139.419 26.7314C140.045 29.3322 141.263 30.2539 143.534 29.9577C145.674 29.6943 147.122 27.7849 146.991 25.3158C146.958 24.7891 146.892 24.2624 146.76 23.7356C146.332 21.8592 145.279 20.7069 143.238 20.5094C140.637 20.246 138.036 20.4436 135.436 20.4436C133.427 20.4436 133.427 20.4765 133.427 18.4354C133.427 13.5961 133.46 8.75671 133.395 3.91736C133.395 2.96266 133.691 2.76514 134.58 2.79806C137.213 2.8639 139.847 2.79806 142.481 2.79806Z" fill="white"/>
<path d="M215.104 35.8837C211.186 35.9496 207.269 34.8632 204.141 31.6699C201.771 29.2667 200.52 26.2709 199.993 22.9788C199.401 19.1929 199.697 15.4729 200.981 11.8516C203.615 4.47738 209.738 2.17293 216.157 2.46921C218.034 2.56797 219.845 2.96302 221.622 3.62144C222.215 3.85188 222.347 4.11525 222.149 4.74074C221.622 6.2551 221.161 7.76945 220.733 9.31672C220.569 9.9093 220.338 10.0081 219.779 9.77761C218.462 9.2838 217.112 8.92167 215.697 8.95459C211.647 9.05336 209.178 10.9298 208.191 14.8474C207.499 17.5469 207.466 20.2793 207.993 22.9788C208.783 27.0281 211.68 29.3325 215.861 29.3325C217.408 29.3325 218.923 29.0692 220.404 28.6741C220.865 28.5424 221.129 28.5424 221.26 29.1021C221.721 30.7481 222.215 32.3612 222.742 33.9743C222.939 34.5998 222.61 34.7974 222.149 34.962C220.009 35.7191 217.771 35.785 215.104 35.8837Z" fill="white"/>
<path d="M74.335 20.2461C76.4749 16.3614 78.5159 12.6414 80.7216 8.65797C78.8781 8.65797 77.232 8.65797 75.586 8.65797C74.1046 8.65797 72.656 8.59213 71.1746 8.62505C70.615 8.62505 70.3516 8.52629 70.3516 7.86787C70.4174 6.4852 70.3845 5.06961 70.3516 3.65402C70.3516 3.19313 70.4504 2.99561 70.9771 2.99561C77.1662 2.99561 83.3882 2.99561 89.5773 2.99561C89.709 3.35773 89.4456 3.58818 89.3139 3.81862C87.3387 7.50574 85.3634 11.2258 83.3553 14.9129C83.1578 15.275 82.8944 15.5384 83.5528 15.7688C87.1741 17.0528 88.853 19.8839 89.5773 23.4723C89.9065 25.0854 89.8736 26.7314 89.5115 28.3446C88.4909 32.8547 85.133 35.653 80.4253 35.9822C76.7053 36.2455 73.4791 35.2579 71.1088 32.2292C69.8907 30.6819 69.3969 28.8713 69.3311 26.929C69.3311 26.3693 69.4627 26.1718 70.0553 26.2047C71.5697 26.2376 73.0511 26.2376 74.5654 26.2047C75.0593 26.2047 75.2568 26.4022 75.3555 26.8631C75.981 29.2663 77.4296 30.2869 79.7669 30.0564C81.7751 29.8589 83.2236 28.2458 83.3882 26.0401C83.6186 22.8468 81.9726 20.8386 78.8122 20.3777C77.3966 20.1144 75.9481 20.1802 74.335 20.2461Z" fill="white"/>
<path d="M122.893 8.55941C119.601 8.55941 116.539 8.52649 113.51 8.55941C112.786 8.55941 112.523 8.42773 112.556 7.63763C112.622 6.3208 112.556 4.97105 112.523 3.65423C112.523 3.22626 112.589 2.96289 113.115 2.96289C119.337 2.96289 125.559 2.96289 131.814 2.96289C131.847 3.39086 131.617 3.62131 131.452 3.91759C129.543 7.50595 127.633 11.0943 125.691 14.6497C125.362 15.2752 125.23 15.5386 126.086 15.9007C129.773 17.3492 131.354 20.4109 131.88 24.098C132.111 25.6453 132.012 27.2255 131.617 28.7727C130.53 32.9537 127.173 35.6532 122.695 35.9824C119.93 36.1799 117.395 35.6861 115.124 34.0071C112.72 32.2294 111.667 29.7604 111.535 26.8633C111.502 26.3366 111.7 26.172 112.227 26.172C113.774 26.2049 115.288 26.2049 116.835 26.172C117.263 26.172 117.527 26.2708 117.56 26.7646C117.757 29.2665 120.259 30.4517 122.531 29.925C124.769 29.3982 126.086 27.0279 125.625 24.493C125.197 22.1886 123.683 20.7401 121.346 20.378C120.128 20.1804 118.877 20.1804 117.658 20.1804C117.362 20.1804 116.934 20.4109 116.737 20.0817C116.572 19.8183 116.901 19.5549 117.066 19.2916C118.811 16.0983 120.556 12.9379 122.3 9.74456C122.432 9.44827 122.564 9.18491 122.893 8.55941Z" fill="white"/>
<path d="M177.739 2.73242C177.081 4.80643 176.455 6.74875 175.83 8.72399C175.665 9.2178 175.369 9.18488 174.974 9.18488C173.492 9.18488 172.044 9.2178 170.563 9.18488C169.74 9.15196 169.509 9.34948 169.509 10.2054C169.608 18.1722 169.608 26.1391 169.707 34.1059C169.707 35.1264 169.509 35.4885 168.423 35.4227C166.678 35.3239 164.966 35.3239 163.221 35.4227C162.299 35.4556 162.003 35.2581 162.003 34.2705C162.036 26.3037 162.003 18.3368 162.069 10.37C162.069 9.38241 161.773 9.15196 160.851 9.18488C158.876 9.25072 156.9 9.18488 154.958 9.2178C154.398 9.2178 154.234 9.0532 154.234 8.49355C154.267 6.91335 154.3 5.36608 154.234 3.78588C154.201 2.96287 154.398 2.73242 155.254 2.73242C160.983 2.76534 166.744 2.76534 172.472 2.76534C174.184 2.73242 175.929 2.73242 177.739 2.73242Z" fill="white"/>
<path d="M110.218 19.5549C110.218 17.0859 110.284 14.6168 110.218 12.1478C110.054 6.97921 107.256 3.81882 102.153 3.06164C97.7744 2.40323 91.6841 4.41139 91.1902 11.1601C90.7952 16.6579 90.894 22.1557 91.1902 27.6534C91.3878 31.4393 93.4289 33.9084 96.8526 35.291C103.009 37.7601 109.297 34.2705 110.153 27.8509C110.515 25.1185 110.284 22.3203 110.218 19.5549ZM104.161 25.9086C104.161 26.4354 104.095 26.9621 104.029 27.4888C103.766 29.4641 102.482 30.5834 100.507 30.5504C98.7291 30.5175 97.2806 29.1349 97.2477 27.2584C97.1818 24.6247 97.2147 21.9911 97.2147 19.3574C97.2147 16.8883 97.1818 14.4193 97.2147 11.9502C97.2806 9.51411 98.5974 8.2302 100.869 8.29604C102.449 8.32896 103.733 9.44826 104.029 10.9955C104.128 11.621 104.194 12.2465 104.194 12.9049C104.194 17.2176 104.194 21.5631 104.161 25.9086Z" fill="white"/>
<path d="M21.991 0H11.0284L0 19.2586H10.9297L21.991 0Z" fill="white"/>
<path d="M44.0478 0H33.0852L11.0283 38.5172H21.9909L44.0478 0Z" fill="white"/>
<path d="M33.0527 38.5174H44.0153L55.0438 19.2588H44.1141L33.0527 38.5174Z" fill="white"/>
<path d="M21.991 38.5174H11.0284L0 19.2588H10.9297L21.991 38.5174Z" fill="white"/>
<path d="M33.0527 0H44.0153L55.0438 19.2586H44.1141L33.0527 0Z" fill="white"/>
</svg>
