<svg width="251" height="39" viewBox="0 0 251 39" fill="none" xmlns="http://www.w3.org/2000/svg">
<g clip-path="url(#clip0_72_763)">
<path d="M226.116 19.3068C226.116 14.1079 226.134 8.90909 226.095 3.71377C226.088 2.945 226.294 2.75194 227.039 2.773C228.981 2.82916 230.923 2.82214 232.865 2.77651C233.53 2.76247 233.711 2.95905 233.704 3.6225C233.673 7.16796 233.715 10.7099 233.673 14.2554C233.663 15.0417 233.861 15.2769 234.661 15.2663C237.272 15.2312 239.886 15.2488 242.497 15.319C243.273 15.3401 243.44 15.0978 243.429 14.3572C243.391 10.8152 243.436 7.26976 243.395 3.7243C243.384 2.95905 243.583 2.75545 244.338 2.77651C246.312 2.83267 248.289 2.81512 250.266 2.78353C250.833 2.773 251.004 2.94149 251.004 3.5207C250.99 14.0518 250.99 24.5828 251.004 35.1139C251.004 35.6685 250.878 35.8826 250.287 35.8721C248.243 35.837 246.2 35.83 244.157 35.8756C243.485 35.8896 243.405 35.6229 243.405 35.0472C243.426 30.9646 243.388 26.8786 243.44 22.796C243.45 21.9255 243.2 21.7429 242.382 21.7605C239.837 21.8202 237.289 21.8412 234.745 21.7675C233.805 21.7394 233.669 22.0589 233.676 22.9014C233.718 26.8821 233.676 30.8663 233.711 34.8506C233.718 35.6018 233.589 35.9142 232.744 35.8826C230.836 35.8124 228.925 35.8159 227.018 35.8826C226.224 35.9107 226.099 35.6299 226.102 34.9103C226.13 29.7044 226.116 24.5056 226.116 19.3068Z" fill="#4A2883"/>
<path d="M199.217 2.7908C198.559 4.88648 197.926 6.79962 197.365 8.73383C197.195 9.32006 196.85 9.32708 196.394 9.32708C193.714 9.33059 191.034 9.37622 188.357 9.33761C187.549 9.32708 187.236 9.5026 187.285 10.3767C187.358 11.7562 187.337 13.1463 187.288 14.5259C187.268 15.1718 187.49 15.3192 188.092 15.3122C190.637 15.2841 193.185 15.3228 195.729 15.2841C196.415 15.2736 196.662 15.4351 196.631 16.1723C196.565 17.7905 196.565 19.4123 196.596 21.0306C196.61 21.673 196.45 21.8906 195.771 21.8801C193.227 21.838 190.679 21.8836 188.134 21.8485C187.49 21.838 187.268 22.003 187.288 22.684C187.337 24.4391 187.341 26.1943 187.285 27.9495C187.261 28.6937 187.532 28.8306 188.2 28.8236C191.615 28.792 195.033 28.8341 198.448 28.792C199.196 28.7814 199.426 28.971 199.401 29.7433C199.342 31.5301 199.37 33.3203 199.398 35.1106C199.408 35.6898 199.3 35.9391 198.639 35.932C192.645 35.8759 186.648 35.8372 180.654 35.8443C179.812 35.8443 179.864 35.4265 179.867 34.8508C179.888 26.6472 179.895 18.447 179.906 10.2433C179.909 8.01421 179.916 5.78864 179.916 3.55957C179.916 3.13833 179.871 2.78027 180.504 2.78027C186.697 2.79783 192.889 2.7908 199.217 2.7908Z" fill="#4A2883"/>
<path d="M143.062 2.85759C145.777 2.85759 148.492 2.88918 151.204 2.84003C151.976 2.82599 152.175 3.0647 152.143 3.8124C152.084 5.12527 152.074 6.44868 152.147 7.76155C152.189 8.55489 151.907 8.69881 151.186 8.69179C147.834 8.65318 144.482 8.69881 141.134 8.65669C140.403 8.64967 140.142 8.80763 140.177 9.59395C140.243 11.1104 140.236 12.6339 140.18 14.1504C140.152 14.9192 140.333 15.2175 141.162 15.1719C142.801 15.0841 144.451 15.1508 146.073 15.4246C150.382 16.1548 153.024 19.0473 153.71 23.6459C154.016 25.6924 153.901 27.6863 153.236 29.6381C151.12 35.8233 143.268 38.5157 137.834 34.8931C135.272 33.187 133.852 30.7824 133.709 27.6372C133.668 26.7034 133.915 26.2611 134.914 26.2997C136.285 26.3524 137.66 26.3348 139.035 26.2997C139.62 26.2857 139.853 26.5314 139.985 27.0755C140.615 29.6977 141.83 30.6455 144.113 30.3507C146.268 30.0733 147.706 28.1391 147.591 25.6398C147.566 25.1027 147.479 24.5656 147.364 24.039C146.943 22.1224 145.868 20.971 143.821 20.7674C141.207 20.5076 138.6 20.6867 135.989 20.6937C133.97 20.7007 133.971 20.7218 133.971 18.6717C133.971 13.7748 133.998 8.87784 133.946 3.9809C133.936 3.00853 134.245 2.81897 135.13 2.83652C137.768 2.89269 140.413 2.85759 143.062 2.85759Z" fill="#664796"/>
<path d="M215.984 36.3425C212.043 36.4092 208.107 35.2965 204.974 32.081C202.593 29.6413 201.351 26.6013 200.825 23.27C200.219 19.4402 200.526 15.6631 201.828 11.9983C204.473 4.54227 210.613 2.19034 217.063 2.4817C218.946 2.56595 220.766 2.9907 222.538 3.65767C223.123 3.87882 223.272 4.16316 223.064 4.78449C222.548 6.315 222.082 7.86307 221.654 9.42166C221.487 10.0325 221.247 10.1272 220.679 9.90258C219.367 9.38656 218.016 9.03903 216.575 9.07063C212.51 9.15839 210.046 11.0575 209.05 15.0242C208.364 17.7447 208.316 20.5109 208.841 23.2595C209.628 27.3701 212.524 29.7045 216.746 29.7115C218.295 29.715 219.812 29.4342 221.309 29.0515C221.779 28.9322 222.019 28.9287 222.172 29.4868C222.628 31.1402 223.13 32.783 223.659 34.4154C223.864 35.0542 223.54 35.2543 223.05 35.4228C220.888 36.16 218.646 36.2513 215.984 36.3425Z" fill="#4A2883"/>
<path d="M74.6204 20.5004C76.768 16.5688 78.8286 12.7987 81.0423 8.75477C79.1836 8.75477 77.5338 8.76179 75.8804 8.75126C74.408 8.74073 72.9322 8.68808 71.4599 8.70212C70.8855 8.70914 70.6245 8.60734 70.6488 7.93686C70.6976 6.52219 70.6697 5.1005 70.6454 3.68582C70.6384 3.22597 70.7498 3.02588 71.258 3.02588C77.485 3.03992 83.7156 3.03641 89.9391 3.03641C90.0714 3.40851 89.8069 3.63317 89.6746 3.8824C87.6906 7.62795 85.6961 11.37 83.7051 15.112C83.5172 15.4666 83.2317 15.7474 83.9 15.9896C87.5339 17.299 89.236 20.1704 89.9635 23.7896C90.2942 25.4324 90.2524 27.0823 89.8869 28.7146C88.8636 33.2676 85.4733 36.125 80.7604 36.4444C77.0325 36.6972 73.785 35.7108 71.4146 32.6322C70.2068 31.0666 69.6882 29.2342 69.6429 27.2543C69.629 26.6892 69.7891 26.4926 70.3704 26.5066C71.8775 26.5417 73.3847 26.5382 74.8919 26.5031C75.4035 26.4926 75.5741 26.6997 75.6959 27.163C76.3329 29.5887 77.7774 30.6207 80.1339 30.3856C82.1527 30.1855 83.6042 28.5637 83.7782 26.3311C84.0253 23.1086 82.3511 21.0515 79.1836 20.6022C77.7043 20.3881 76.2389 20.4548 74.6204 20.5004Z" fill="#664796"/>
<path d="M123.371 8.69159C120.054 8.69159 117.009 8.67052 113.963 8.70563C113.249 8.71265 112.96 8.56521 112.992 7.77187C113.047 6.4239 112.978 5.07241 112.95 3.72444C112.94 3.29969 113.006 3.02588 113.538 3.02588C119.79 3.03641 126.045 3.0329 132.303 3.0329C132.341 3.45765 132.094 3.71742 131.941 4.00176C130.02 7.62795 128.098 11.2541 126.149 14.8663C125.815 15.4876 125.683 15.7755 126.549 16.123C130.253 17.6009 131.837 20.6829 132.38 24.432C132.606 26.0081 132.519 27.5983 132.112 29.1534C131.008 33.3834 127.642 36.1039 123.138 36.4374C120.378 36.641 117.806 36.146 115.543 34.447C113.138 32.6427 112.087 30.1539 111.941 27.2017C111.916 26.6751 112.097 26.4961 112.63 26.5031C114.168 26.5312 115.71 26.5242 117.252 26.4996C117.698 26.4926 117.941 26.6049 117.983 27.0823C118.192 29.6308 120.691 30.8279 122.971 30.2943C125.213 29.7677 126.556 27.3596 126.093 24.7936C125.669 22.4451 124.151 20.9848 121.795 20.6303C120.562 20.4442 119.33 20.4232 118.088 20.4478C117.778 20.4548 117.364 20.6759 117.176 20.3319C117.026 20.0616 117.353 19.7878 117.492 19.528C119.247 16.3055 121.008 13.0901 122.762 9.87106C122.915 9.59024 123.062 9.29185 123.371 8.69159Z" fill="#664796"/>
<path d="M178.447 2.79074C177.786 4.88291 177.146 6.86275 176.543 8.85663C176.394 9.35159 176.07 9.32351 175.694 9.32C174.222 9.31648 172.746 9.36914 171.273 9.30595C170.459 9.27085 170.205 9.48849 170.212 10.352C170.295 18.4188 170.313 26.4891 170.403 34.5559C170.414 35.5739 170.215 35.946 169.129 35.8828C167.392 35.781 165.645 35.7986 163.905 35.8793C162.968 35.9214 162.68 35.7108 162.687 34.6963C162.735 26.626 162.693 18.5592 162.742 10.4889C162.749 9.47796 162.46 9.25681 161.513 9.29542C159.54 9.37265 157.559 9.29542 155.586 9.32702C155.011 9.33755 154.844 9.16203 154.858 8.58984C154.893 7.00316 154.921 5.41298 154.851 3.82981C154.817 3.00136 155.018 2.76266 155.878 2.76968C161.639 2.8118 167.403 2.79074 173.164 2.79074C174.893 2.79074 176.627 2.79074 178.447 2.79074Z" fill="#4A2883"/>
<path d="M110.67 19.8126C110.67 17.3133 110.733 14.8139 110.657 12.3145C110.5 7.08762 107.691 3.88618 102.557 3.1139C98.1502 2.45044 92.038 4.49698 91.5577 11.3071C91.1644 16.8639 91.2514 22.4384 91.5542 28.0058C91.763 31.8356 93.7993 34.3525 97.2348 35.7391C103.41 38.2315 109.741 34.693 110.594 28.2164C110.959 25.4397 110.73 22.6174 110.67 19.8126ZM104.586 26.2366C104.583 26.7737 104.52 27.3143 104.454 27.8513C104.207 29.8593 102.891 31.0001 100.903 30.9475C99.1213 30.9018 97.6803 29.5258 97.6281 27.6302C97.5585 24.9658 97.6107 22.2945 97.6107 19.6266H97.6072C97.6072 17.1272 97.5654 14.6279 97.6177 12.1285C97.6699 9.64666 99.003 8.34432 101.283 8.41453C102.86 8.46367 104.172 9.57295 104.447 11.1491C104.558 11.7774 104.6 12.4233 104.6 13.0622C104.61 17.4537 104.604 21.8451 104.586 26.2366Z" fill="#664796"/>
<path d="M22.0853 0H11.0653L0 19.493L10.9818 19.5L22.0853 0Z" fill="#654796"/>
<path d="M44.2265 0H33.2099L11.0654 39H22.0855L44.2265 0Z" fill="#8C79B5"/>
<path d="M33.1855 38.9893H44.2021L55.2709 19.4928L44.2856 19.4893L33.1855 38.9893Z" fill="#482782"/>
<path d="M22.0853 39.0002H11.0653L0 19.4932L10.9818 19.5002L22.0853 39.0002Z" fill="#482782"/>
<path d="M33.1855 0H44.2021L55.2709 19.493L44.2856 19.5L33.1855 0Z" fill="#654796"/>
</g>
<defs>
<clipPath id="clip0_72_763">
<rect width="251" height="39" fill="white"/>
</clipPath>
</defs>
</svg>
